IKResults
version=1
nRows=13
nColumns=42
inDegrees=yes

"Units are S.I. units (second, meters, Newtons, ...)"
"If the header above contains a line with 'inDegrees', this indicates whether rotational values are in degrees (yes) or radians (no)."

endheader
time	pelvis_tilt	pelvis_list	pelvis_rotation	pelvis_tx	pelvis_ty	pelvis_tz	hip_flexion_r	hip_adduction_r	hip_rotation_r	knee_angle_r	knee_adduction_r	knee_angle_r_beta	ankle_angle_r	subtalar_angle_r	mtp_angle_r	hip_flexion_l	hip_adduction_l	hip_rotation_l	knee_angle_l	knee_adduction_l	knee_angle_l_beta	ankle_angle_l	subtalar_angle_l	mtp_angle_l	lumbar_extension	lumbar_bending	lumbar_rotation	arm_flex_r	arm_add_r	arm_rot_r	elbow_flex_r	pro_sup_r	wrist_flex_r	wrist_dev_r	arm_flex_l	arm_add_l	arm_rot_l	elbow_flex_l	pro_sup_l	wrist_flex_l	wrist_dev_l
0.5	-4.34992661	-1.92444563	3.60127016	1.09285293	0.93813442	0.48614368	25.70675095	-3.13079422	3.1430315	26.51715357	2.2228717	0.46281164	2.85486952	-28.56877348	-8.92380671	12.94324512	-9.92733205	-0.4009398	58.66078344	5.38393913	1.02382381	7.75589278	-20.65424927	2.60692575	-5.50408	3.19158435	1.67204275	-9.35326782	-9.49526578	-18.97146048	17.15426304	90.00000001	0	0	16.64234038	-12.90828891	-7.39093688	91.11602499	90.00000001	0	0
0.51	-4.45609183	-2.60325839	4.07590519	1.09290967	0.93898772	0.48651517	24.97758311	-2.57858807	2.35193188	26.03551237	2.2228717	0.45440541	3.09622295	-28.61558477	-9.19518054	14.98954011	-10.5844845	0.57854428	61.03328958	5.38393913	1.06523186	7.65263418	-22.2601813	3.20687932	-5.23773177	3.99013183	1.92642046	-8.76905407	-9.93818728	-18.75909076	18.51498	90.00000001	0	0	15.76944574	-11.94435985	-7.02725786	88.77394353	90.00000001	0	0
0.52	-4.85604388	-2.98550076	4.16325765	1.09273631	0.93931601	0.48833998	24.82084137	-1.97806778	2.49220456	25.84805629	2.2228717	0.45113369	3.68665483	-28.99407017	-8.44940362	17.24758884	-11.11260279	1.04976467	63.08843829	5.38393913	1.10110097	7.82523141	-22.92747641	4.31630597	-4.71292578	4.24996382	2.38025972	-8.41499424	-10.22681743	-17.65641983	20.67807553	90.00000001	0	0	14.7233829	-11.4626873	-6.45893592	86.68110574	90.00000001	0	0
0.53	-4.61116658	-2.94350321	4.13090416	1.09248286	0.94061545	0.49030078	23.84133457	-1.73370179	2.88562133	25.54184108	2.2228717	0.44578922	3.9543057	-29.05605387	-8.53552893	18.53948413	-11.25733486	1.15623972	64.47760462	5.38393913	1.12534649	7.79069298	-23.59067734	4.4978459	-5.02393434	4.02206953	2.61968039	-6.98636597	-10.48406499	-17.48602097	21.71431416	90.00000001	0	0	13.66949679	-11.16695944	-6.32099103	84.75251722	90.00000001	0	0
0.54	-4.56545034	-3.32814331	4.55960074	1.09198823	0.94155197	0.49108437	22.99068827	-1.31316164	2.60680185	25.00302032	2.2228717	0.43638503	4.03036419	-29.48186906	-8.46772964	20.36249717	-11.58224379	1.92919319	65.73029753	5.38393913	1.14721011	7.61974288	-24.400782	5.11302311	-5.01293346	4.38687545	2.95366267	-6.24991937	-10.8826187	-17.02603718	23.47713158	90.00000001	0	0	13.11562237	-10.37230504	-5.87507442	81.64081979	90.00000001	0	0
0.55	-3.92148457	-3.3077227	5.4648981	1.09065867	0.94361962	0.4905508	21.44220783	-1.53266067	1.90892144	24.44886341	2.2228717	0.42671316	4.35482514	-29.47734233	-8.50215913	21.55424943	-11.17739425	3.04037636	66.47477362	5.38393913	1.16020367	7.61955151	-24.83898867	5.72904811	-5.84269834	4.40529099	2.60181543	-5.11530521	-11.32987312	-16.22488751	25.48366495	90.00000001	0	0	12.6083421	-9.89272915	-5.35547521	78.82086601	90.00000001	0	0
0.56	-4.61626854	-3.46566635	4.19061838	1.09269	0.94332786	0.49422953	21.55674774	-0.59328922	3.67375241	24.11600261	2.2228717	0.42090365	4.58522614	-30.27470861	-8.30294512	23.22551943	-12.03171193	1.80747951	66.76851373	5.38393913	1.1653304	8.07268907	-24.23039874	5.96301538	-4.79935727	4.33118206	4.37274849	-4.78990048	-11.73721437	-15.40308492	27.57314228	90.00000001	0	0	11.41404762	-9.41570841	-4.9015474	75.68031887	90.00000001	0	0
0.57	-4.57652402	-3.51857095	4.37306178	1.09211564	0.94420538	0.49520856	20.77218756	-0.37091094	3.92772437	23.63479878	2.2228717	0.41250506	4.72742501	-30.78979483	-8.16753242	24.75846951	-12.04539829	2.11097447	66.87436159	5.38393913	1.16717779	8.14140233	-23.92910772	5.97828428	-4.82313497	4.27476608	4.6017409	-3.46470915	-12.1376282	-14.99801892	28.94961976	90.00000001	0	0	10.71875536	-8.9721464	-4.63874945	72.50147553	90.00000001	0	0
0.58	-4.57083218	-3.75891247	4.605572	1.09148838	0.94477403	0.49618168	20.00335471	0.03409599	4.11041599	23.05517082	2.2228717	0.40238864	4.74228183	-31.51404756	-7.97864501	26.36939342	-12.25535249	2.45480757	66.74601396	5.38393913	1.16493771	8.18191329	-23.36832181	5.93159879	-4.79756655	4.40547802	4.89228702	-2.45008946	-12.6637542	-14.72658129	31.2445437	90.00000001	0	0	10.0847216	-8.58128586	-4.13146406	69.25234514	90.00000001	0	0
0.59	-4.56756982	-3.80971802	4.747317	1.09063679	0.94548978	0.49694682	19.29093643	0.2031935	4.36222097	22.61375188	2.2228717	0.39468443	5.02268632	-31.78687044	-7.8885073	27.79797375	-12.23199227	2.57788366	66.16750077	5.38393913	1.15484075	8.20357515	-22.80702708	5.77396082	-4.82534855	4.36125148	5.10893009	-0.98220193	-13.11494419	-14.35367256	32.64452714	90.00000001	0	0	9.40869256	-8.19315688	-3.94491226	65.96362911	90.00000001	0	0
0.6	-3.72356276	-3.73056869	6.04293694	1.0875875	0.94726102	0.49706866	17.67373506	0.01230838	3.60419529	22.1190884	2.2228717	0.38605092	5.36365398	-32.21396881	-7.58965945	28.76591942	-11.62203761	3.68025547	65.36368283	5.38393913	1.14081148	7.91852073	-22.20270205	5.67189973	-6.04999643	4.19555754	4.36201957	0.83826207	-13.43414703	-13.95170468	34.43937699	90.00000001	0	0	9.37193571	-8.02890274	-3.45429119	62.63711751	90.00000001	0	0
0.61	-3.44297963	-3.87703162	6.31859423	1.08675942	0.94821197	0.49763934	16.54726663	0.32293577	3.83484789	21.41619964	2.2228717	0.3737832	5.54176902	-32.44963177	-7.48203628	29.75554878	-11.66139644	3.77472968	64.14113199	5.38393913	1.11947394	7.75910729	-21.65569976	5.56499149	-6.37905845	4.28418396	4.39106149	2.4055232	-13.86108196	-13.62848156	36.17614083	90.00000001	0	0	8.65479966	-7.73231056	-3.20533863	59.40704636	90.00000001	0	0
0.62	-2.96491605	-3.80855601	6.42803693	1.08580325	0.9496039	0.49808887	15.22978081	0.41589628	3.9904596	20.78883781	2.2228717	0.36283367	5.69305248	-32.70014175	-7.14834317	30.21492027	-11.5744496	3.48138757	62.39934544	5.38393913	1.08907403	7.69997965	-21.10249711	5.35245031	-7.02011275	4.20535983	4.87406669	3.6230292	-14.47654378	-13.11761146	38.50302648	90.00000001	0	0	8.43558447	-7.24763538	-2.90266211	55.36399675	90.00000001	0	0
